<?xml version="1.0" encoding="utf-8"?><svg viewBox="0 0 31 31" xmlns="http://www.w3.org/2000/svg" xmlns:xlink="http://www.w3.org/1999/xlink"><style>:root>svg{display:none}:root>svg:target{display:block}</style><svg fill="none" viewBox="0 0 24 24" id="burger_close" xmlns="http://www.w3.org/2000/svg"><path d="M6.4 19 5 17.6l5.6-5.6L5 6.4 6.4 5l5.6 5.6L17.6 5 19 6.4 13.4 12l5.6 5.6-1.4 1.4-5.6-5.6L6.4 19Z" fill="#fff"/></svg><svg fill="none" viewBox="0 0 25 18" id="burger_menu" xmlns="http://www.w3.org/2000/svg"><rect x="9.499" y="15.017" width="14.585" height="2.5" rx="1.25" fill="#fff"/><rect x=".596" y="7.517" width="23.487" height="2.5" rx="1.25" fill="#fff"/><rect x=".596" y=".017" width="23.487" height="2.5" rx="1.25" fill="#fff"/></svg><svg fill="none" viewBox="0 0 10 20" id="facebook" xmlns="http://www.w3.org/2000/svg"><path fill-rule="evenodd" clip-rule="evenodd" d="M6.415 19.56H2.324v-9.495H.279V6.792h2.045V4.828C2.324 2.16 3.479.57 6.757.57h2.73v3.273H7.782c-1.278 0-1.362.458-1.362 1.312l-.005 1.637h3.092l-.362 3.273h-2.73v9.494Z" fill="#fff"/></svg><svg fill="none" viewBox="0 0 23 11" id="scroll_down" xmlns="http://www.w3.org/2000/svg"><path d="M21.381 1.446H1.127L11.14 9.615l10.24-8.17Z" stroke="#fff" stroke-width="2" stroke-linecap="round" stroke-linejoin="round"/></svg><svg fill="none" viewBox="0 0 31 31" id="steam" xmlns="http://www.w3.org/2000/svg"><path fill-rule="evenodd" clip-rule="evenodd" d="M15.775 30.509c8.319 0 15.062-6.716 15.062-15 0-8.284-6.743-15-15.062-15-8.32 0-15.063 6.716-15.063 15 0 1.528.23 3.003.656 4.392.108.02.284.064.54.139l-.4-6.273c0-.115.195-.17.374-.221.097-.028.19-.054.244-.088.145-.092 3.137.996 3.296 1.068l3.826 1.724a4.932 4.932 0 0 1 3.332-.703l3.477-4.222c.043-3.37 2.803-6.084 6.198-6.089 3.172.034 5.801 2.44 6.102 5.574.32 3.389-2.18 6.393-5.589 6.715l-5.791 4.116a5.121 5.121 0 0 1-3.405 3.87c-2.687.905-5.607-.53-6.513-3.206l-2.014-.664c-.15-.048-2.891-1.183-3.634-1.6a15.063 15.063 0 0 0 14.364 10.468Zm9.58-19.112a3.09 3.09 0 0 1-3.1 3.081 3.09 3.09 0 0 1-3.099-3.08 3.09 3.09 0 0 1 3.1-3.081 3.09 3.09 0 0 1 3.099 3.08Zm-1.031 0a2.062 2.062 0 0 1-2.068 2.056 2.062 2.062 0 0 1-2.068-2.056c0-1.135.926-2.055 2.068-2.055s2.068.92 2.068 2.055ZM10.58 23.412c.417.202.877.308 1.342.308.353 0 .697-.058 1.036-.168a3.074 3.074 0 0 0 .33-5.685.518.518 0 0 0-.693.236.512.512 0 0 0 .237.688 2.045 2.045 0 0 1 .988 2.816 2.07 2.07 0 0 1-2.784.88.518.518 0 0 0-.693.237.512.512 0 0 0 .237.688Z" fill="#fff"/></svg><svg fill="none" viewBox="0 0 20 19" id="twitch" xmlns="http://www.w3.org/2000/svg"><path fill-rule="evenodd" clip-rule="evenodd" d="M19.721 13.012V.067H2.7L.572 2.364v12.11h5.32v3.758h2.34l2.553-2.715h6.383l2.553-2.505Zm-12.553-.209H3.764a.423.423 0 0 1-.426-.417V2.155c0-.23.192-.418.426-.418H17.38c.234 0 .425.188.425.418v7.934a.41.41 0 0 1-.122.297l-2.34 2.297a.435.435 0 0 1-.304.12h-3.91l-3.297 2.224a.43.43 0 0 1-.436.026.412.412 0 0 1-.23-.37v-1.88Z" fill="#fff"/><path d="M13.551 9.15V4.973H11.85v4.175h1.702Zm-4.255 0V4.973H7.594v4.175h1.702Z" fill="#fff"/></svg><svg fill="none" viewBox="0 0 19 15" id="twitter" xmlns="http://www.w3.org/2000/svg"><path opacity=".3" d="M18.303 2.024a7.671 7.671 0 0 1-2.124.556A3.581 3.581 0 0 0 17.804.625a7.617 7.617 0 0 1-2.348.857A3.771 3.771 0 0 0 12.757.367C10.716.367 9.06 1.949 9.06 3.9c0 .278.033.548.096.806-3.073-.148-5.798-1.554-7.622-3.692a3.395 3.395 0 0 0-.5 1.776c0 1.226.653 2.308 1.645 2.941a3.805 3.805 0 0 1-1.676-.442v.046c0 1.711 1.275 3.14 2.966 3.465a3.886 3.886 0 0 1-1.67.06c.471 1.405 1.837 2.426 3.455 2.456a7.65 7.65 0 0 1-4.593 1.512c-.295 0-.589-.017-.882-.05a10.826 10.826 0 0 0 5.67 1.589c6.801 0 10.52-5.386 10.52-10.057 0-.153 0-.305-.012-.457a7.368 7.368 0 0 0 1.846-1.829h.001Z" fill="#fff"/></svg><svg fill="none" viewBox="0 0 22 17" id="twitter-white" xmlns="http://www.w3.org/2000/svg"><path fill-rule="evenodd" clip-rule="evenodd" d="M21.975 2.816a9.062 9.062 0 0 1-2.475.635c.89-.5 1.573-1.292 1.895-2.234a9.05 9.05 0 0 1-2.738.98A4.437 4.437 0 0 0 15.512.921c-2.38 0-4.311 1.81-4.311 4.04 0 .316.038.625.112.92-3.582-.169-6.758-1.777-8.884-4.22a3.829 3.829 0 0 0-.583 2.031c0 1.4.76 2.638 1.917 3.362a4.527 4.527 0 0 1-1.952-.506V6.6c0 1.957 1.485 3.59 3.457 3.96a4.696 4.696 0 0 1-1.946.07c.548 1.603 2.14 2.772 4.026 2.805a9.023 9.023 0 0 1-5.353 1.728c-.348 0-.691-.019-1.028-.056a12.81 12.81 0 0 0 6.607 1.815c7.928 0 12.263-6.156 12.263-11.493 0-.176-.005-.349-.013-.523a8.503 8.503 0 0 0 2.15-2.09Z" fill="#fff"/></svg><svg fill="none" viewBox="0 0 31 31" id="xbox" xmlns="http://www.w3.org/2000/svg"><path d="M10.551 3.158a22.246 22.246 0 0 1 4.56 2.444c.164.112.351.17.54.17a.964.964 0 0 0 .539-.17 22.27 22.27 0 0 1 4.56-2.45.935.935 0 0 0 .592-.879.925.925 0 0 0-.605-.867C17.57.205 13.732.205 10.57 1.406a.944.944 0 0 0-.018 1.752Z" fill="#fff"/><path d="M24.159 3.164a.94.94 0 0 0-1.004-.041 40.987 40.987 0 0 0-5.052 3.434.942.942 0 0 0-.064 1.412c3.32 3.16 7.921 12.847 8.977 17.3-2.288-3.867-7.393-12.969-10.731-16.08a.942.942 0 0 0-1.28 0C11.661 12.3 6.574 21.406 4.285 25.28 5.342 20.827 9.93 11.128 13.251 7.97a.933.933 0 0 0-.059-1.412A41.445 41.445 0 0 0 8.14 3.123a.941.941 0 0 0-1.003.04A14.992 14.992 0 0 0 .624 15.507c0 3.598 1.297 7.068 3.661 9.775a14.897 14.897 0 0 0 11.36 5.228c4.395 0 8.537-1.905 11.371-5.233a14.849 14.849 0 0 0 3.65-9.77c0-4.923-2.435-9.535-6.507-12.342Z" fill="#fff"/></svg><svg fill="none" viewBox="0 0 26 19" id="youtube" xmlns="http://www.w3.org/2000/svg"><path d="M20.371.57H5.751C2.887.57.56 2.938.56 5.851v7.433c0 2.92 2.326 5.28 5.19 5.28h14.615c2.868 0 5.19-2.366 5.19-5.28V5.851c.005-2.913-2.322-5.28-5.185-5.28Zm-3.514 9.364-6.838 3.317a.272.272 0 0 1-.391-.254V6.155c0-.21.217-.343.396-.249l6.838 3.526c.206.105.201.403-.005.502Z" fill="#fff"/></svg></svg>